<?xml version="1.0" standalone="no"?>
<!DOCTYPE svg PUBLIC "-//W3C//DTD SVG 20010904//EN"
 "http://www.w3.org/TR/2001/REC-SVG-20010904/DTD/svg10.dtd">
<svg version="1.0" xmlns="http://www.w3.org/2000/svg"
 width="1080.000000pt" height="1080.000000pt" viewBox="0 0 1080.000000 1080.000000"
 preserveAspectRatio="xMidYMid meet">
<metadata>
Created by potrace 1.14, written by Peter Selinger 2001-2017
</metadata>
<g transform="translate(0.000000,1080.000000) scale(0.100000,-0.100000)"
fill="#000000" stroke="none">
<path d="M4829 10675 c8 -25 72 -258 85 -315 2 -8 15 -60 29 -115 25 -98 82
-356 91 -405 2 -14 7 -36 10 -50 3 -14 8 -38 11 -55 36 -204 46 -261 55 -325
6 -41 12 -86 15 -100 16 -106 43 -377 52 -525 14 -240 8 -695 -11 -840 -3 -16
-7 -57 -10 -90 -4 -33 -9 -71 -11 -85 -3 -14 -7 -41 -9 -60 -13 -102 -52 -286
-89 -420 -20 -71 -75 -236 -92 -275 -7 -16 -23 -55 -35 -85 -67 -163 -182
-365 -290 -507 -60 -80 -213 -269 -253 -313 -42 -46 -391 -483 -556 -696 -89
-115 -169 -217 -177 -226 -174 -217 -545 -746 -734 -1048 -162 -259 -401 -709
-426 -805 -2 -5 -24 -64 -49 -130 -39 -101 -108 -334 -121 -409 -1 -12 -8 -50
-14 -86 -15 -85 -21 -378 -9 -458 15 -103 19 -124 40 -202 12 -41 22 -79 23
-85 6 -28 52 -140 94 -224 146 -299 452 -638 837 -927 527 -397 1209 -656
1845 -702 127 -9 454 -9 559 1 288 26 655 119 881 224 180 83 279 137 414 227
663 439 1130 1168 1370 2136 29 115 47 197 71 320 10 49 34 196 40 240 3 25 8
52 10 60 2 8 7 49 10 90 4 41 9 84 11 95 26 127 25 772 -1 980 -6 51 -14 118
-20 170 -60 516 -276 1264 -521 1813 -13 29 -24 54 -24 57 0 16 -235 497 -310
635 -29 52 -71 129 -93 170 -22 41 -46 82 -53 91 -8 8 -14 19 -14 22 0 4 -39
72 -87 152 -49 80 -92 154 -98 163 -26 44 -150 238 -156 242 -3 3 -8 10 -10
15 -4 10 -137 212 -152 230 -4 6 -72 100 -150 210 -140 195 -294 405 -307 415
-3 3 -37 46 -75 95 -101 131 -345 427 -420 511 -5 6 -31 35 -57 65 -76 89 -87
101 -151 173 -69 78 -78 87 -232 253 -124 133 -516 527 -615 618 -36 33 -80
73 -98 90 l-32 29 9 -29z"/>
</g>
</svg>
